<?xml version="1.0" encoding="utf-8"?>
<!-- Generator: Adobe Illustrator 25.0.1, SVG Export Plug-In . SVG Version: 6.00 Build 0)  -->
<svg version="1.1" id="圖層_1" xmlns="http://www.w3.org/2000/svg" xmlns:xlink="http://www.w3.org/1999/xlink" x="0px" y="0px"
	 viewBox="0 0 28.4 28.4" style="enable-background:new 0 0 28.4 28.4;" xml:space="preserve">
<path d="M16.3,17.4c0.5,0.7,0.8,1.6,0.8,2.4c0,1.1-0.4,2.1-1.2,3l0,0L12,26.6c-0.8,0.8-1.9,1.2-3,1.2c-1.1,0-2.1-0.4-3-1.2l-4.3-4.3
	c-0.8-0.8-1.2-1.9-1.2-3c0-1.1,0.4-2.1,1.2-3l3.9-3.9l0,0c0.8-0.8,1.9-1.2,3-1.2c0.8,0,1.7,0.3,2.4,0.8l-2.9,2.9l0,0l-3.9,3.9
	C4,19,4,19.1,4,19.3c0,0.2,0.1,0.4,0.2,0.5l4.3,4.3c0.1,0.1,0.3,0.2,0.5,0.2c0.2,0,0.4-0.1,0.5-0.2l3.9-3.9l0,0L16.3,17.4L16.3,17.4
	z M16.5,9.4l-6.9,6.9c-0.7,0.7-0.7,1.8,0,2.5c0.7,0.7,1.8,0.7,2.5,0l6.9-6.9c0.7-0.7,0.7-1.8,0-2.5C18.2,8.8,17.1,8.8,16.5,9.4
	L16.5,9.4z M22.4,1.6c-0.8-0.8-1.9-1.2-3-1.2c-1.1,0-2.1,0.4-3,1.2l-3.9,3.9l0,0c-0.8,0.8-1.2,1.9-1.2,3c0,0.8,0.3,1.7,0.8,2.4
	l6.8-6.8c0.1-0.1,0.3-0.2,0.5-0.2c0.2,0,0.4,0.1,0.5,0.2l4.3,4.3c0.1,0.1,0.2,0.3,0.2,0.5c0,0.2-0.1,0.4-0.2,0.5l-3.9,3.9l0,0
	l-2.9,2.9c0.7,0.5,1.6,0.8,2.4,0.8c1.1,0,2.1-0.4,3-1.2l0,0l3.9-3.9c0.8-0.8,1.2-1.9,1.2-3c0-1.1-0.4-2.1-1.2-3L22.4,1.6z"/>
</svg>
