<?xml version="1.0" encoding="utf-8"?>
<!-- Generator: Adobe Illustrator 25.0.0, SVG Export Plug-In . SVG Version: 6.00 Build 0)  -->
<svg version="1.1" id="圖層_1" xmlns="http://www.w3.org/2000/svg" xmlns:xlink="http://www.w3.org/1999/xlink" x="0px" y="0px"
	 viewBox="0 0 100 100" style="enable-background:new 0 0 100 100;" xml:space="preserve">
<style type="text/css">
	.st0{fill:#FFFFFF;}
</style>
<g>
	<path class="st0" d="M33.4,13.4c-5.5,0-9.9,4.4-9.9,9.9c0,5.4,4.4,9.9,9.9,9.9s9.9-4.4,9.9-9.9C43.3,17.9,38.9,13.4,33.4,13.4z
		 M33.4,29.6c-3.5,0-6.3-2.8-6.3-6.3c0-3.5,2.8-6.3,6.3-6.3c3.5,0,6.3,2.8,6.3,6.3C39.7,26.8,36.9,29.6,33.4,29.6z"/>
	<path class="st0" d="M43,45.8v2.1c1.1-0.9,2.3-1.6,3.6-2v-0.1c0-6.4-5.2-11.6-11.6-11.6h-3.3c-6.4,0-11.5,5.1-11.6,11.5
		c1.3,0.4,2.5,1,3.6,1.8v-1.7c0-4.4,3.6-7.9,8-7.9h3.3C39.5,37.9,43,41.5,43,45.8z"/>
</g>
<g>
	<path class="st0" d="M66.7,13.4c-5.5,0-9.9,4.4-9.9,9.9c0,5.4,4.4,9.9,9.9,9.9s9.9-4.4,9.9-9.9C76.6,17.9,72.1,13.4,66.7,13.4z
		 M66.7,29.6c-3.5,0-6.3-2.8-6.3-6.3c0-3.5,2.8-6.3,6.3-6.3c3.5,0,6.3,2.8,6.3,6.3C73,26.8,70.1,29.6,66.7,29.6z"/>
	<path class="st0" d="M76.3,45.8v2.1c1.1-0.9,2.3-1.6,3.6-2v-0.1c0-6.4-5.2-11.6-11.6-11.6H65c-6.4,0-11.5,5.1-11.6,11.5
		c1.3,0.4,2.5,1,3.6,1.8v-1.7c0-4.4,3.6-7.9,8-7.9h3.3C72.7,37.9,76.3,41.5,76.3,45.8z"/>
</g>
<g>
	<path class="st0" d="M15.1,73.2h3.4c4.6,0,8.3,3.7,8.3,8.2v4.3h3.8v-4.3c0-6.6-5.4-12-12.1-12h-3.4C8.4,69.4,3,74.8,3,81.5v4.3h3.8
		v-4.3C6.8,76.9,10.5,73.2,15.1,73.2z"/>
	<path class="st0" d="M16.8,48.2C11.4,48.2,7,52.6,7,58s4.4,9.8,9.8,9.8s9.8-4.4,9.8-9.8S22.2,48.2,16.8,48.2z M16.8,64
		c-3.3,0-6-2.7-6-6c0-3.3,2.7-6,6-6c3.3,0,6,2.7,6,6C22.8,61.3,20.1,64,16.8,64z"/>
</g>
<g>
	<path class="st0" d="M48.3,73.2h3.4c4.6,0,8.3,3.7,8.3,8.2v4.3h3.8v-4.3c0-6.6-5.4-12-12.1-12h-3.4c-6.7,0-12.1,5.4-12.1,12v4.3
		h3.8v-4.3C40.1,76.9,43.8,73.2,48.3,73.2z"/>
	<path class="st0" d="M50.1,48.2c-5.4,0-9.8,4.4-9.8,9.8s4.4,9.8,9.8,9.8s9.8-4.4,9.8-9.8S55.5,48.2,50.1,48.2z M50.1,64
		c-3.3,0-6-2.7-6-6c0-3.3,2.7-6,6-6c3.3,0,6,2.7,6,6C56.1,61.3,53.4,64,50.1,64z"/>
</g>
<g>
	<path class="st0" d="M81.6,73.2H85c4.6,0,8.3,3.7,8.3,8.2v4.3h3.8v-4.3c0-6.6-5.4-12-12.1-12h-3.4c-6.7,0-12.1,5.4-12.1,12v4.3h3.8
		v-4.3C73.3,76.9,77,73.2,81.6,73.2z"/>
	<path class="st0" d="M83.3,48.2c-5.4,0-9.8,4.4-9.8,9.8s4.4,9.8,9.8,9.8s9.8-4.4,9.8-9.8S88.7,48.2,83.3,48.2z M83.3,64
		c-3.3,0-6-2.7-6-6c0-3.3,2.7-6,6-6c3.3,0,6,2.7,6,6C89.3,61.3,86.6,64,83.3,64z"/>
</g>
</svg>
